<svg xmlns="http://www.w3.org/2000/svg" width="192" height="45" fill="none"><path stroke="#00CBFF" stroke-width=".625" d="M18.287.893c-6.245 7.136-10.752 19.847-1.784 36.35-16.774.67-25.2-31.667 1.784-36.35Z"/><path fill="#00CBFF" stroke="#00CBFF" stroke-width=".625" d="M35.456 32.594C50.72 13.867 32.557-.77 19.846.927c-4.014 3.122-6.244 9.554-6.244 10.892C34.787 4.236 34.787 23.897 29.435 26.35l-4.683-5.575-6.913 4.46 3.568 4.683c-3.39.535-6.69-1.3-7.805-2.266 1.115 2.9 1.338 5.575 4.237 9.626 3.211 1.07 8.102.446 9.812 0l4.906 6.467 7.137-5.13z"/><path stroke="#00CBFF" stroke-width=".625" d="M14.226 6.244a38 38 0 0 0-3.346 1.77m-7.136 21.2 8.474-3.568-5.463-4.014m-3.01 7.582 9.812 2.9m-9.813-2.9 3.01-7.582m0 0-5.463-4.014c.648-2.27 2.61-4.471 4.906-6.36m.558 10.374-.558-10.373m0 0 .558-5.015 4.125 1.77M6.197 11.26c1.51-1.24 3.163-2.345 4.683-3.245M6.197 11.26l6.022 1.452-1.339-4.697M6.197 11.26l3.568 5.913"/><ellipse cx="12" cy="25.372" fill="#00CBFF" rx=".852" ry=".841"/><ellipse cx="13.342" cy="32.062" fill="#00CBFF" rx=".852" ry=".841"/><ellipse cx="6.648" cy="21.358" fill="#00CBFF" rx=".852" ry=".841"/><ellipse cx="9.769" cy="17.345" fill="#00CBFF" rx=".852" ry=".841"/><ellipse cx="6.203" cy="11.099" fill="#00CBFF" rx=".852" ry=".841"/><ellipse cx="11.107" cy="7.977" fill="#00CBFF" rx=".852" ry=".841"/><ellipse cx="14.232" cy="6.64" fill="#00CBFF" rx=".852" ry=".841"/><ellipse cx="4.277" cy="29.058" fill="#00CBFF" rx="1.277" ry="1.261"/><ellipse cx="1.277" cy="17.318" fill="#00CBFF" rx="1.277" ry="1.261"/><ellipse cx="7.074" cy="6.167" fill="#00CBFF" rx="1.277" ry="1.261"/><ellipse cx="12.365" cy="13.503" fill="#00CBFF" rx="1.277" ry="1.261"/><ellipse cx="18.227" cy="1.261" fill="#00CBFF" rx="1.277" ry="1.261"/><ellipse cx="16.463" cy="36.968" fill="#00CBFF" rx=".852" ry=".841"/><path fill="#04B0DB" d="M61.81 26.737h3.038l2.138 2.788 1.01 1.24 3.408 4.447h-3.158l-2.279-2.968-.78-1.08zm10.253-3.598q0 3.278-1.199 5.637-1.2 2.348-3.288 3.618-2.08 1.26-4.727 1.259-2.658 0-4.747-1.26-2.08-1.269-3.278-3.627-1.2-2.359-1.2-5.627 0-3.277 1.2-5.627 1.2-2.358 3.278-3.617 2.089-1.27 4.747-1.27 2.648 0 4.727 1.27 2.09 1.26 3.288 3.617 1.2 2.35 1.2 5.627m-3.058 0q0-2.499-.81-4.207-.798-1.719-2.198-2.599-1.39-.89-3.148-.89-1.77 0-3.158.89-1.39.88-2.199 2.599-.8 1.708-.8 4.207t.8 4.218q.81 1.709 2.199 2.598 1.389.88 3.158.88 1.758 0 3.148-.88 1.4-.89 2.199-2.598.81-1.719.81-4.218m14.116 10.572q-3.602 0-5.6-1.548-1.97-1.575-1.97-4.306V13.673h2.673v14.184q0 1.773 1.267 2.758 1.294.957 3.63.957t3.602-.957q1.296-.957 1.295-2.758V13.673h2.674v14.184q0 2.73-1.999 4.306-1.97 1.548-5.572 1.548m12.014-20.038h2.674v19.7h-2.674zm16.22 7.627q1.998.337 3.068 1.52 1.069 1.18 1.913 3.77l2.055 6.783h-2.674l-1.998-6.53q-.394-1.293-.872-1.997a3.06 3.06 0 0 0-1.239-1.098q-.76-.394-2.082-.507l-3.884 4.11v6.022h-2.674v-19.7h2.674v10.413l9.709-10.413h3.209zm13.48 3.77-6.642-11.397h2.955l5.094 8.921 5.01-8.921h2.983l-6.726 11.398v8.302h-2.674zm27.693-11.397v16.21q0 1.745-.732 2.618-.704.872-2.252.872h-1.885l-8.106-15.591v15.591h-2.532v-19.7h3.095l8.922 17.392h.169q.45 0 .619-.337.168-.338.169-1.239V13.673zm10.572 19.7q-3.433 0-5.038-1.491-1.604-1.493-1.604-4.475v-7.768q0-2.983 1.604-4.475t5.038-1.491h6.726v2.11H163.1q-2.055 0-3.012.957-.956.93-.956 2.9v2.813h9.315v2.14h-9.315v2.814q0 1.97.956 2.927.957.928 3.012.928h6.839v2.111zm15.002-17.59h-6.22v-2.11h15.141v2.11h-6.248v17.59h-2.673z"/><path fill="#04B0DB" d="M61.81 26.737v-.625h-1.264l.766 1.004zm3.038 0 .496-.38-.188-.245h-.308zm2.138 2.788-.496.381.006.007.005.007zm1.01 1.24.496-.38-.005-.008-.006-.007zm3.408 4.447v.625h1.267l-.77-1.005zm-3.158 0-.496.38.187.245h.309zm-2.279-2.968-.507.366.005.007.006.008zm-.78-1.08.507-.366-.004-.006-.005-.007zm5.677-2.388.557.284zm-3.288 3.618.324.535zm-9.474 0-.326.533.003.002zm-3.278-3.628.557-.284zm0-11.254.557.285v-.001zm3.278-3.617.324.535zm9.474 0-.326.533.003.002zm3.288 3.617-.557.284zm-2.668 1.42-.567.263.001.004zm-2.2-2.599-.336.527.004.003zm-6.305 0 .334.529.003-.002zm-2.199 2.599-.566-.267v.002zm0 8.425-.567.263.002.004zm2.199 2.598-.338.527.003.002zm6.306 0 .335.529v-.001zm2.199-2.598-.566-.267v.002zm-6.387.005h3.039v-1.25h-3.039zm2.542-.244 2.14 2.788.992-.761-2.14-2.789zm2.15 2.802 1.01 1.24.97-.79-1.01-1.24zm.998 1.225 3.408 4.447.993-.76-3.408-4.448zm3.905 3.442h-3.158v1.25h3.158zm-2.662.244-2.279-2.968-.992.761 2.278 2.969zm-2.268-2.954-.78-1.079-1.014.733.78 1.079zm-.79-1.092-3.377-4.427-.995.758 3.378 4.428zm5.754-7.646c0 2.11-.386 3.887-1.131 5.353l1.114.567c.854-1.678 1.268-3.66 1.268-5.92zm-1.13 5.352c-.752 1.471-1.771 2.587-3.057 3.368l.65 1.07c1.5-.912 2.672-2.208 3.52-3.869zm-3.056 3.368c-1.28.775-2.741 1.169-4.403 1.169v1.25c1.87 0 3.559-.445 5.051-1.35zm-4.403 1.169c-1.67 0-3.138-.395-4.424-1.17l-.646 1.071c1.498.904 3.194 1.35 5.07 1.35zm-4.421-1.168c-1.279-.78-2.295-1.9-3.047-3.378l-1.115.567c.847 1.667 2.017 2.967 3.51 3.878zm-3.047-3.378c-.746-1.466-1.131-3.24-1.131-5.343h-1.251c0 2.255.414 4.232 1.267 5.91zM54.25 23.14c0-2.11.386-3.883 1.13-5.342l-1.113-.569c-.855 1.673-1.268 3.65-1.268 5.911zm1.131-5.343c.752-1.478 1.767-2.593 3.045-3.366l-.648-1.07c-1.495.905-2.664 2.202-3.512 3.869zm3.045-3.367c1.286-.781 2.755-1.178 4.423-1.178V12c-1.877 0-3.573.45-5.072 1.36zm4.423-1.178c1.66 0 3.122.396 4.401 1.177l.652-1.067C66.409 12.449 64.719 12 62.849 12zm4.404 1.18c1.284.773 2.302 1.888 3.054 3.365l1.114-.567c-.847-1.668-2.02-2.965-3.522-3.87zm3.054 3.366c.745 1.459 1.13 3.232 1.13 5.342h1.252c0-2.26-.414-4.238-1.268-5.911zm-.676 5.342c0-1.73-.28-3.23-.87-4.475l-1.13.535c.489 1.034.749 2.339.749 3.94zm-.868-4.471c-.577-1.239-1.384-2.205-2.433-2.864l-.666 1.059c.817.513 1.475 1.28 1.965 2.332zm-2.429-2.861c-1.033-.662-2.201-.989-3.485-.989v1.251c1.061 0 1.992.267 2.81.79zm-3.485-.989c-1.29 0-2.461.326-3.496.989l.675 1.053c.818-.524 1.752-.79 2.82-.79zm-3.493.987c-1.041.659-1.848 1.624-2.43 2.86l1.132.533c.497-1.056 1.156-1.823 1.967-2.336zm-2.43 2.862c-.583 1.244-.859 2.743-.859 4.472h1.25c0-1.602.258-2.908.742-3.942zm-.859 4.472c0 1.73.276 3.23.858 4.481l1.134-.527c-.484-1.042-.741-2.352-.741-3.954zm.86 4.485c.582 1.23 1.388 2.193 2.426 2.858l.675-1.054c-.814-.52-1.474-1.29-1.97-2.34zm2.43 2.86c1.033.654 2.203.976 3.492.976v-1.25c-1.07 0-2.005-.265-2.824-.783zm3.492.976c1.282 0 2.45-.322 3.483-.977l-.67-1.056c-.819.518-1.75.782-2.813.782zm3.483-.977c1.047-.665 1.854-1.63 2.43-2.861l-1.133-.53c-.49 1.046-1.148 1.815-1.968 2.335zm2.43-2.86c.589-1.251.869-2.754.869-4.484H68.38c0 1.601-.26 2.91-.75 3.951zm8.758 4.54-.39.488.008.006zm-1.97-18.49v-.626h-.625v.626zm2.674 0h.626v-.626h-.626zm1.267 16.942-.384.494.006.004.006.005zm7.232 0-.371-.503-.006.004zm1.295-16.942v-.626h-.625v.626zm2.674 0h.625v-.626h-.625zm-1.999 18.49.387.492v-.001zm-5.572.922c-2.32 0-4.033-.499-5.218-1.416l-.766.988c1.48 1.147 3.501 1.68 5.984 1.68zm-5.21-1.41c-1.151-.922-1.735-2.17-1.735-3.818h-1.25c0 1.992.729 3.614 2.204 4.794zm-1.735-3.818V13.673h-1.25v14.184zm-.626-13.559h2.674v-1.25H75.55zm2.049-.625v14.184h1.25V13.673zm0 14.184c0 1.352.493 2.463 1.508 3.252l.767-.988c-.674-.524-1.024-1.252-1.024-2.264zm1.52 3.26c1.01.747 2.369 1.08 4.002 1.08v-1.25c-1.481 0-2.542-.305-3.259-.835zm4.002 1.08c1.632 0 2.986-.332 3.98-1.083l-.755-.998c-.695.525-1.742.83-3.225.83zm3.974-1.08c1.043-.77 1.548-1.888 1.548-3.26h-1.25c0 1.03-.359 1.75-1.041 2.255zm1.548-3.26V13.673h-1.25v14.184zm-.625-13.559h2.674v-1.25h-2.674zm2.048-.625v14.184h1.251V13.673zm0 14.184c0 1.644-.59 2.892-1.76 3.815l.775.982c1.494-1.179 2.236-2.802 2.236-4.797zm-1.759 3.814c-1.164.915-2.865 1.414-5.186 1.414v1.251c2.482 0 4.496-.532 5.959-1.681zm6.828-17.998v-.626h-.625v.626zm2.674 0h.625v-.626h-.625zm0 19.7v.626h.625v-.626zm-2.674 0h-.625v.626h.625zm0-19.075h2.674v-1.25h-2.674zm2.049-.625v19.7h1.25v-19.7zm.625 19.075h-2.674v1.25h2.674zm-2.048.625v-19.7H94.51v19.7zM111.355 21.3l-.455-.43-.804.851 1.155.195zm3.068 1.52.463-.42zm1.913 3.77.599-.18-.004-.013zm2.055 6.783v.626h.843l-.245-.807zm-2.674 0-.598.183.136.443h.462zm-1.998-6.53-.598.183zm-.872-1.997-.527.337.004.007.005.007zm-1.239-1.098-.288.555.009.004zm-2.082-.507.053-.623-.301-.025-.207.219zm-3.884 4.11-.455-.43-.171.18v.25zm0 6.022v.626h.625v-.626zm-2.674 0h-.625v.626h.625zm0-19.7v-.626h-.625v.626zm2.674 0h.625v-.626h-.625zm0 10.413h-.626v1.588l1.083-1.162zm9.709-10.413v-.626h-.272l-.185.2zm3.209 0 .454.43.997-1.056h-1.451zm-7.309 8.243c1.231.208 2.112.665 2.708 1.323l.927-.84c-.83-.917-1.994-1.474-3.427-1.716zm2.708 1.323c.626.692 1.23 1.852 1.783 3.545l1.189-.387c-.574-1.76-1.245-3.113-2.045-3.997zm1.779 3.533 2.054 6.782 1.197-.362-2.054-6.783zm2.653 5.976h-2.674v1.25h2.674zm-2.076.442-1.998-6.53-1.196.367 1.998 6.53zm-1.998-6.528c-.271-.892-.584-1.625-.953-2.168l-1.035.703c.269.396.538.995.792 1.829zm-.944-2.153a3.7 3.7 0 0 0-1.485-1.32l-.559 1.118c.43.216.755.507.991.876zm-1.477-1.316c-.608-.316-1.394-.496-2.317-.575l-.106 1.247c.84.071 1.443.229 1.847.438zm-2.825-.381-3.884 4.109.909.859 3.884-4.109zm-4.055 4.538v6.023h1.251V27.35zm.626 5.398h-2.674v1.25h2.674zm-2.048.625v-19.7h-1.251v19.7zm-.626-19.075h2.674v-1.25h-2.674zm2.048-.625v10.413h1.251V13.673zm1.083 10.84 9.71-10.414-.915-.853-9.71 10.413zm9.252-10.215h3.209v-1.25h-3.209zm2.754-1.055L110.9 20.87l.91.859 7.204-7.627zm6.73 11.828h.625v-.17l-.085-.145zm-6.642-11.398v-.626h-1.088l.548.94zm2.955 0 .543-.31-.18-.316h-.363zm5.094 8.921-.543.31.548.96.54-.964zm5.01-8.921v-.626h-.366l-.18.32zm2.983 0 .538.318.557-.944h-1.095zm-6.726 11.398-.539-.318-.087.147v.17zm0 8.302v.626h.625v-.626zm-2.674 0h-.625v.626h.625zm.54-8.617-6.642-11.398-1.08.63 6.642 11.398zm-7.182-10.458h2.955v-1.25h-2.955zm2.412-.315 5.094 8.921 1.086-.62-5.094-8.921zm6.182 8.917 5.01-8.921-1.091-.612-5.009 8.921zm4.465-8.602h2.983v-1.25h-2.983zm2.444-.943-6.726 11.398 1.077.636 6.726-11.398zm-6.813 11.716v8.302h1.251v-8.302zm.626 7.677h-2.674v1.25h2.674zm-2.049.625v-8.302h-1.25v8.302zm27.068-19.7h.625v-.626h-.625zm-.732 18.828-.479-.402-.008.009zm-4.137.872-.555.288.175.337h.38zm-8.106-15.591.555-.289-1.18.289zm0 15.591v.626h.626v-.626zm-2.532 0h-.626v.626h.626zm0-19.7v-.626h-.626v.626zm3.095 0 .557-.286-.175-.34h-.382zm8.922 17.392-.557.286.175.34h.382zm.788-.337.559.28zm.169-17.055v-.626h-.626v.626zm1.907 0v16.21h1.251v-16.21zm0 16.21c0 1.091-.231 1.793-.585 2.216l.958.804c.621-.741.878-1.784.878-3.02zm-.593 2.225c-.31.384-.846.64-1.765.64v1.25c1.145 0 2.11-.325 2.739-1.105zm-1.765.64h-1.885v1.25h1.885zm-1.33.337-8.106-15.592-1.109.577 8.105 15.591zm-9.286-15.303v15.591h1.251V17.782zm.625 14.966h-2.532v1.25h2.532zm-1.907.625v-19.7h-1.251v19.7zm-.625-19.075h3.095v-1.25h-3.095zm2.539-.34 8.921 17.393 1.113-.571-8.921-17.393zm9.478 17.733h.169V30.44h-.169zm.169 0c.226 0 .462-.043.679-.161.223-.122.39-.305.499-.523l-1.119-.56q-.005.01.003-.001l.018-.014c.011-.006-.007.008-.08.008zm1.178-.684c.185-.37.235-.92.235-1.518h-1.251c0 .603-.063.88-.103.959zm.235-1.518V13.673h-1.251v15.816zm-.625-15.19h2.533v-1.252h-2.533zm8.067.865.426.458zm11.764-1.491h.625v-.626h-.625zm0 2.11v.626h.625v-.625zm-9.738.957.436.45.007-.007zm-.956 5.713h-.626v.626h.626zm9.315 0h.625v-.625h-.625zm0 2.14v.625h.625v-.626zm-9.315 0v-.626h-.626v.625zm.956 5.74-.442.443.007.006zm9.851.93h.625v-.626h-.625zm0 2.11v.626h.625v-.626zm-6.839-.625c-2.217 0-3.709-.485-4.612-1.325l-.852.917c1.236 1.148 3.103 1.658 5.464 1.658zm-4.612-1.325c-.901-.837-1.405-2.136-1.405-4.016h-1.25c0 2.097.566 3.782 1.803 4.933zm-1.405-4.016v-7.768h-1.25v7.768zm0-7.768c0-1.88.504-3.179 1.405-4.017l-.852-.916c-1.237 1.151-1.803 2.836-1.803 4.933zm1.405-4.017c.903-.84 2.395-1.324 4.612-1.324v-1.25c-2.361 0-4.228.51-5.464 1.658zm4.612-1.324h6.726v-1.25H163.1zm6.101-.625v2.11h1.25v-2.11zm.625 1.485H163.1v1.25h6.726zm-6.726 0c-1.451 0-2.65.336-3.454 1.14l.885.885c.472-.472 1.28-.774 2.569-.774zm-3.447 1.134c-.807.783-1.147 1.945-1.147 3.347h1.251c0-1.225.298-1.995.767-2.45zm-1.147 3.347v2.814h1.251V19.64zm.626 3.44h9.315v-1.251h-9.315zm8.69-.626v2.14h1.25v-2.14zm.625 1.514h-9.315v1.25h9.315zm-9.941.625v2.815h1.251v-2.815zm0 2.815c0 1.403.341 2.57 1.14 3.369l.885-.885c-.477-.476-.774-1.261-.774-2.484zm1.147 3.375c.804.78 2 1.106 3.447 1.106v-1.251c-1.293 0-2.104-.294-2.576-.752zm3.447 1.106h6.839v-1.251H163.1zm6.213-.626v2.111h1.251v-2.11zm.626 1.486H163.1v1.25h6.839zm8.163-16.964h.625v-.626h-.625zm-6.22 0h-.625v.625h.625zm0-2.111v-.626h-.625v.626zm15.141 0h.626v-.626h-.626zm0 2.11v.626h.626v-.625zm-6.248 0v-.625h-.625v.626zm0 17.59v.626h.626v-.626zm-2.673 0h-.626v.626h.626zm0-18.215h-6.22v1.25h6.22zm-5.595.626v-2.111h-1.25v2.11zm-.625-1.486h15.141v-1.25h-15.141zm14.516-.625v2.11h1.251v-2.11zm.625 1.485h-6.248v1.25h6.248zm-6.873.626v17.589h1.251v-17.59zm.625 16.964h-2.673v1.25h2.673zm-2.048.625v-17.59h-1.251v17.59z"/></svg>